<?xml version="1.0" encoding="UTF-8" standalone="no"?>
<!DOCTYPE svg PUBLIC "-//W3C//DTD SVG 1.0//EN" "http://www.w3.org/TR/2001/PR-SVG-20010719/DTD/svg10.dtd">
<svg width="14cm" height="12cm" viewBox="43 100 261 239" xmlns="http://www.w3.org/2000/svg" xmlns:xlink="http://www.w3.org/1999/xlink">
  <g>
    <line style="fill: none; fill-opacity:0; stroke-width: 2; stroke-dasharray: 10; stroke: #000000" x1="174.938" y1="311.927" x2="174.759" y2="107.127"/>
    <polyline style="fill: none; fill-opacity:0; stroke-width: 2; stroke: #000000" points="179.766,114.887 174.757,104.891 169.766,114.896 "/>
  </g>
  <g>
    <rect style="fill: #ffffff" x="45" y="311" width="80" height="26"/>
    <rect style="fill: none; fill-opacity:0; stroke-width: 2; stroke: #ff0000" x="45" y="311" width="80" height="26"/>
  </g>
  <text font-size="12.7998" style="fill: #ff0000;text-anchor:middle;font-family:sans-serif;font-style:normal;font-weight:normal" x="80.7955" y="329.045">
    <tspan x="80.7955" y="329.045">john</tspan>
  </text>
  <g>
    <rect style="fill: #ffffff" x="134.938" y="311.927" width="80" height="26"/>
    <rect style="fill: none; fill-opacity:0; stroke-width: 2; stroke: #00ff00" x="134.938" y="311.927" width="80" height="26"/>
  </g>
  <text font-size="12.7998" style="fill: #00ff00;text-anchor:middle;font-family:sans-serif;font-style:normal;font-weight:normal" x="175.921" y="329.324">
    <tspan x="175.921" y="329.324">master</tspan>
  </text>
  <g>
    <rect style="fill: #ffffff" x="223.123" y="311.279" width="80" height="26"/>
    <rect style="fill: none; fill-opacity:0; stroke-width: 2; stroke: #3e70ef" x="223.123" y="311.279" width="80" height="26"/>
  </g>
  <text font-size="12.7998" style="fill: #3e70ef;text-anchor:middle;font-family:sans-serif;font-style:normal;font-weight:normal" x="263.457" y="330.621">
    <tspan x="263.457" y="330.621">antonio</tspan>
  </text>
  <g>
    <line style="fill: none; fill-opacity:0; stroke-width: 2; stroke-dasharray: 10; stroke: #000000" x1="85" y1="311" x2="85.9016" y2="110.369"/>
    <polyline style="fill: none; fill-opacity:0; stroke-width: 2; stroke: #000000" points="90.8667,118.156 85.9117,108.133 80.8668,118.111 "/>
  </g>
  <g>
    <line style="fill: none; fill-opacity:0; stroke-width: 2; stroke-dasharray: 10; stroke: #000000" x1="263.123" y1="311.279" x2="261.675" y2="107.776"/>
    <polyline style="fill: none; fill-opacity:0; stroke-width: 2; stroke: #000000" points="266.73,115.504 261.659,105.54 256.73,115.575 "/>
  </g>
  <g>
    <polyline style="fill: none; fill-opacity:0; stroke-width: 2; stroke: #00ff00" points="174.938,311.927 174.938,279.998 262.94,279.998 262.94,248.873 "/>
    <path style="fill: #00ff00" d="M 262.94 248.873 C 265.44,248.873 267.94,251.373 267.94,253.873 C 267.94,256.373 265.44,258.873 262.94,258.873 C 260.44,258.873 257.94,256.373 257.94,253.873 C 257.94,251.373 260.44,248.873 262.94,248.873z"/>
    <path style="fill: none; fill-opacity:0; stroke-width: 2; stroke: #00ff00" d="M 262.94 248.873 C 265.44,248.873 267.94,251.373 267.94,253.873 C 267.94,256.373 265.44,258.873 262.94,258.873 C 260.44,258.873 257.94,256.373 257.94,253.873 C 257.94,251.373 260.44,248.873 262.94,248.873"/>
  </g>
  <g>
    <polyline style="fill: none; fill-opacity:0; stroke-width: 2; stroke: #00ff00" points="174.938,311.927 174.938,279.428 85.2733,279.428 85.2733,246.928 "/>
    <path style="fill: #00ff00" d="M 85.2733 246.928 C 87.7733,246.928 90.2733,249.428 90.2733,251.928 C 90.2733,254.428 87.7733,256.928 85.2733,256.928 C 82.7733,256.928 80.2733,254.428 80.2733,251.928 C 80.2733,249.428 82.7733,246.928 85.2733,246.928z"/>
    <path style="fill: none; fill-opacity:0; stroke-width: 2; stroke: #00ff00" d="M 85.2733 246.928 C 87.7733,246.928 90.2733,249.428 90.2733,251.928 C 90.2733,254.428 87.7733,256.928 85.2733,256.928 C 82.7733,256.928 80.2733,254.428 80.2733,251.928 C 80.2733,249.428 82.7733,246.928 85.2733,246.928"/>
  </g>
  <g>
    <polyline style="fill: none; fill-opacity:0; stroke-width: 2; stroke: #00ff00" points="174.938,311.927 174.938,280.029 174.107,280.029 174.107,275.459 "/>
    <path style="fill: #00ff00" d="M 174.107 275.459 C 176.607,275.459 179.107,277.959 179.107,280.459 C 179.107,282.959 176.607,285.459 174.107,285.459 C 171.607,285.459 169.107,282.959 169.107,280.459 C 169.107,277.959 171.607,275.459 174.107,275.459z"/>
    <path style="fill: none; fill-opacity:0; stroke-width: 2; stroke: #00ff00" d="M 174.107 275.459 C 176.607,275.459 179.107,277.959 179.107,280.459 C 179.107,282.959 176.607,285.459 174.107,285.459 C 171.607,285.459 169.107,282.959 169.107,280.459 C 169.107,277.959 171.607,275.459 174.107,275.459"/>
  </g>
  <g>
    <polyline style="fill: none; fill-opacity:0; stroke-width: 2; stroke: #ff0000" points="85.2733,246.28 85.2733,200.89 174.107,200.89 174.107,196.352 "/>
    <path style="fill: #ff0000" d="M 174.107 196.352 C 176.607,196.352 179.107,198.852 179.107,201.352 C 179.107,203.852 176.607,206.352 174.107,206.352 C 171.607,206.352 169.107,203.852 169.107,201.352 C 169.107,198.852 171.607,196.352 174.107,196.352z"/>
    <path style="fill: none; fill-opacity:0; stroke-width: 2; stroke: #ff0000" d="M 174.107 196.352 C 176.607,196.352 179.107,198.852 179.107,201.352 C 179.107,203.852 176.607,206.352 174.107,206.352 C 171.607,206.352 169.107,203.852 169.107,201.352 C 169.107,198.852 171.607,196.352 174.107,196.352"/>
  </g>
  <g>
    <polyline style="fill: none; fill-opacity:0; stroke-width: 2; stroke: #00ff00" points="174.755,279.349 174.755,200.78 173.907,200.78 173.907,196.21 "/>
    <path style="fill: #00ff00" d="M 173.907 196.21 C 176.407,196.21 178.907,198.71 178.907,201.21 C 178.907,203.71 176.407,206.21 173.907,206.21 C 171.407,206.21 168.907,203.71 168.907,201.21 C 168.907,198.71 171.407,196.21 173.907,196.21z"/>
    <path style="fill: none; fill-opacity:0; stroke-width: 2; stroke: #00ff00" d="M 173.907 196.21 C 176.407,196.21 178.907,198.71 178.907,201.21 C 178.907,203.71 176.407,206.21 173.907,206.21 C 171.407,206.21 168.907,203.71 168.907,201.21 C 168.907,198.71 171.407,196.21 173.907,196.21"/>
  </g>
  <g>
    <polyline style="fill: none; fill-opacity:0; stroke-width: 2; stroke: #3e70ef" points="262.94,250.17 262.94,154.853 188.305,154.853 "/>
    <polyline style="fill: none; fill-opacity:0; stroke-width: 2; stroke: #3e70ef" points="196.069,149.853 186.069,154.853 196.069,159.853 "/>
  </g>
  <g>
    <polyline style="fill: none; fill-opacity:0; stroke-width: 2; stroke: #ff0000" points="174.107,145.775 174.107,180.141 174.107,180.141 174.107,206.078 "/>
    <line style="fill: none; fill-opacity:0; stroke-width: 2; stroke: #ff0000" x1="169.107" y1="160.775" x2="179.107" y2="150.775"/>
    <path style="fill: #ff0000" d="M 174.107 206.078 C 171.607,206.078 169.107,203.578 169.107,201.078 C 169.107,198.578 171.607,196.078 174.107,196.078 C 176.607,196.078 179.107,198.578 179.107,201.078 C 179.107,203.578 176.607,206.078 174.107,206.078z"/>
    <path style="fill: none; fill-opacity:0; stroke-width: 2; stroke: #ff0000" d="M 174.107 206.078 C 171.607,206.078 169.107,203.578 169.107,201.078 C 169.107,198.578 171.607,196.078 174.107,196.078 C 176.607,196.078 179.107,198.578 179.107,201.078 C 179.107,203.578 176.607,206.078 174.107,206.078"/>
  </g>
  <line style="fill: none; fill-opacity:0; stroke-width: 2; stroke: #ff0000" x1="168.271" y1="148.369" x2="178.646" y2="161.337"/>
</svg>
